<svg xmlns="http://www.w3.org/2000/svg">
    <symbol id="facebook" viewBox="0 0 11 20">
        <g>
            <path d="M8.33082 3.32083H10.1567V0.140833C9.84166 0.0975 8.75832 0 7.49666 0C4.86416 0 3.06082 1.65583 3.06082 4.69917V7.5H0.155823V11.055H3.06082V20H6.62249V11.0558H9.40999L9.85249 7.50083H6.62166V5.05167C6.62249 4.02417 6.89916 3.32083 8.33082 3.32083Z"/>
        </g>
    </symbol>
    <symbol id="vk" viewBox="0 0 20 12">
        <g>
            <path d="M16.5958 6.85668C16.2725 6.44834 16.365 6.26668 16.5958 5.90168C16.6 5.89751 19.2692 2.20917 19.5442 0.958339L19.5458 0.957506C19.6825 0.501672 19.5458 0.166672 18.885 0.166672H16.6983C16.1417 0.166672 15.885 0.454172 15.7475 0.775839C15.7475 0.775839 14.6342 3.44084 13.0592 5.16834C12.5508 5.66751 12.3158 5.82751 12.0383 5.82751C11.9017 5.82751 11.6892 5.66751 11.6892 5.21168V0.957506C11.6892 0.410838 11.5333 0.166672 11.0725 0.166672H7.63417C7.285 0.166672 7.0775 0.421672 7.0775 0.659172C7.0775 1.17751 7.865 1.29667 7.94667 2.75501V5.91918C7.94667 6.61251 7.82083 6.74001 7.54167 6.74001C6.79833 6.74001 4.99417 4.06417 3.925 1.00167C3.70917 0.407505 3.49833 0.167505 2.9375 0.167505H0.75C0.125833 0.167505 0 0.455005 0 0.776672C0 1.34501 0.743333 4.17084 3.45667 7.90418C5.265 10.4525 7.81167 11.8333 10.1283 11.8333C11.5208 11.8333 11.6908 11.5267 11.6908 10.9992C11.6908 8.56418 11.565 8.33418 12.2625 8.33418C12.5858 8.33418 13.1425 8.49418 14.4425 9.72335C15.9283 11.1808 16.1725 11.8333 17.0042 11.8333H19.1908C19.8142 11.8333 20.13 11.5267 19.9483 10.9217C19.5325 9.64918 16.7225 7.03168 16.5958 6.85668Z"/>
        </g>
    </symbol>
    <symbol id="twitter" viewBox="0 0 20 18">
        <g>
            <path d="M20 2.79875C19.2563 3.125 18.4637 3.34125 17.6375 3.44625C18.4875 2.93875 19.1363 2.14125 19.4412 1.18C18.6488 1.6525 17.7738 1.98625 16.8412 2.1725C16.0887 1.37125 15.0162 0.875 13.8462 0.875C11.5763 0.875 9.74875 2.7175 9.74875 4.97625C9.74875 5.30125 9.77625 5.61375 9.84375 5.91125C6.435 5.745 3.41875 4.11125 1.3925 1.6225C1.03875 2.23625 0.83125 2.93875 0.83125 3.695C0.83125 5.115 1.5625 6.37375 2.6525 7.1025C1.99375 7.09 1.3475 6.89875 0.8 6.5975C0.8 6.61 0.8 6.62625 0.8 6.6425C0.8 8.635 2.22125 10.29 4.085 10.6712C3.75125 10.7625 3.3875 10.8062 3.01 10.8062C2.7475 10.8062 2.4825 10.7913 2.23375 10.7362C2.765 12.36 4.2725 13.5538 6.065 13.5925C4.67 14.6838 2.89875 15.3412 0.98125 15.3412C0.645 15.3412 0.3225 15.3263 0 15.285C1.81625 16.4563 3.96875 17.125 6.29 17.125C13.835 17.125 17.96 10.875 17.96 5.4575C17.96 5.27625 17.9538 5.10125 17.945 4.9275C18.7588 4.35 19.4425 3.62875 20 2.79875Z"/>
        </g>
    </symbol>
    <symbol id="inst" viewBox="0 0 20 20">
        <g>
            <path d="M14.6875 3.55469H5.3125C4.34326 3.55469 3.55469 4.34326 3.55469 5.3125V14.6875C3.55469 15.6567 4.34326 16.4453 5.3125 16.4453H14.6875C15.6567 16.4453 16.4453 15.6567 16.4453 14.6875V5.3125C16.4453 4.34326 15.6567 3.55469 14.6875 3.55469ZM10 14.1016C7.73865 14.1016 5.89844 12.2614 5.89844 10C5.89844 7.73865 7.73865 5.89844 10 5.89844C12.2614 5.89844 14.1016 7.73865 14.1016 10C14.1016 12.2614 12.2614 14.1016 10 14.1016ZM14.1016 7.07031C13.4555 7.07031 12.9297 6.54449 12.9297 5.89844C12.9297 5.25238 13.4555 4.72656 14.1016 4.72656C14.7476 4.72656 15.2734 5.25238 15.2734 5.89844C15.2734 6.54449 14.7476 7.07031 14.1016 7.07031Z"/>
            <path d="M10 7.07031C8.3847 7.07031 7.07031 8.3847 7.07031 10C7.07031 11.6153 8.3847 12.9297 10 12.9297C11.6153 12.9297 12.9297 11.6153 12.9297 10C12.9297 8.3847 11.6153 7.07031 10 7.07031Z"/>
            <path d="M17.0312 0H2.96875C1.35345 0 0 1.35345 0 2.96875V17.0312C0 18.6465 1.35345 20 2.96875 20H17.0312C18.6465 20 20 18.6465 20 17.0312V2.96875C20 1.35345 18.6465 0 17.0312 0ZM17.6172 14.6875C17.6172 16.3028 16.3028 17.6172 14.6875 17.6172H5.3125C3.6972 17.6172 2.38281 16.3028 2.38281 14.6875V5.3125C2.38281 3.6972 3.6972 2.38281 5.3125 2.38281H14.6875C16.3028 2.38281 17.6172 3.6972 17.6172 5.3125V14.6875Z" />
        </g>
    </symbol>
</svg>