<svg width="40" height="40" viewBox="0 0 40 40" fill="none" xmlns="http://www.w3.org/2000/svg">
<g clip-path="url(#clip0)">
<path d="M8.32067 10.7636C8.32067 9.5313 7.3181 8.52881 6.08592 8.52881C5.5453 8.52881 5.03742 8.71857 4.6375 9.06076C4.40625 8.98185 4.16219 8.94107 3.91492 8.94107C2.68267 8.94107 1.68018 9.94357 1.68018 11.1758C1.68018 12.1271 2.29322 12.9664 3.16204 13.2796C3.42399 14.2287 4.29891 14.9221 5.31648 14.9221C6.54873 14.9221 7.55122 13.9196 7.55122 12.6873C7.55122 12.6112 7.5474 12.5354 7.53974 12.4603C8.02942 12.04 8.32067 11.4215 8.32067 10.7636ZM6.60545 11.6907L6.19358 11.9222L6.33256 12.3738C6.36366 12.4749 6.37951 12.5803 6.37951 12.6871C6.37951 13.2732 5.90264 13.75 5.31663 13.75C4.76203 13.75 4.29656 13.3172 4.25703 12.7647L4.22336 12.2956L3.75805 12.2269C3.24165 12.1507 2.8522 11.6988 2.8522 11.1757C2.8522 10.5896 3.32907 10.1128 3.91508 10.1128C4.1107 10.1128 4.30164 10.1662 4.46734 10.2673L4.91898 10.5429L5.23905 10.1216C5.44241 9.85396 5.75108 9.70052 6.08608 9.70052C6.67217 9.70052 7.14896 10.1774 7.14896 10.7634C7.14888 11.1469 6.94068 11.5022 6.60545 11.6907Z" fill="#47D9B6"/>
<path d="M14.5704 3.26755C14.5704 2.13334 13.6477 1.21069 12.5135 1.21069C12.028 1.21069 11.5713 1.37686 11.2076 1.67733C11.0049 1.6121 10.7923 1.57842 10.5768 1.57842C9.44258 1.57842 8.51986 2.50115 8.51986 3.63528C8.51986 3.70528 8.52345 3.7752 8.53064 3.84481C8.24033 4.20723 8.07861 4.66043 8.07861 5.13082C8.07861 6.26503 9.00134 7.18768 10.1355 7.18768C10.4902 7.18768 10.8374 7.09549 11.1433 6.92354C11.3621 7.00065 11.5934 7.04057 11.8271 7.04057C12.9613 7.04057 13.884 6.11784 13.884 4.98371C13.884 4.92473 13.8815 4.86598 13.8765 4.80754C14.3122 4.42129 14.5704 3.86208 14.5704 3.26755ZM12.9461 4.03958L12.5342 4.27114L12.6733 4.72278C12.6992 4.80684 12.7123 4.89465 12.7123 4.98371C12.7123 5.47168 12.3153 5.8687 11.8272 5.8687C11.6704 5.8687 11.5162 5.82699 11.3814 5.74808L11.0233 5.53839L10.7067 5.80644C10.5449 5.94339 10.3474 6.01581 10.1355 6.01581C9.6475 6.01581 9.25048 5.61878 9.25048 5.13082C9.25055 4.87816 9.3593 4.63676 9.54883 4.46864L9.82258 4.22583L9.72453 3.87325C9.70289 3.79544 9.69188 3.71536 9.69188 3.63536C9.69188 3.1474 10.0889 2.75037 10.5769 2.75037C10.7398 2.75037 10.8988 2.79482 11.0368 2.87896L11.4884 3.15443L11.8084 2.7331C11.9776 2.51029 12.2347 2.38256 12.5136 2.38256C13.0017 2.38256 13.3987 2.77959 13.3987 3.26755C13.3987 3.58685 13.2253 3.88263 12.9461 4.03958Z" fill="#47D9B6"/>
<path d="M38.32 7.60398C38.32 6.46977 37.3973 5.54712 36.2631 5.54712C35.7777 5.54712 35.321 5.71329 34.9572 6.01383C34.7546 5.94852 34.5418 5.91485 34.3263 5.91485C33.1921 5.91485 32.2694 6.83758 32.2694 7.97171C32.2694 8.04171 32.273 8.11163 32.2802 8.18132C31.9898 8.54374 31.8281 8.99686 31.8281 9.46724C31.8281 10.6015 32.7509 11.5241 33.8851 11.5241C34.2397 11.5241 34.5869 11.4319 34.8929 11.26C35.1116 11.3371 35.3429 11.377 35.5766 11.377C36.7108 11.377 37.6335 10.4543 37.6335 9.32014C37.6335 9.26123 37.631 9.2024 37.626 9.14404C38.0618 8.75788 38.32 8.19858 38.32 7.60398ZM36.6956 8.37608L36.2836 8.60772L36.4227 9.05936C36.4486 9.14334 36.4617 9.23108 36.4617 9.32014C36.4617 9.8081 36.0647 10.2051 35.5766 10.2051C35.4197 10.2051 35.2656 10.1634 35.1308 10.0845L34.7727 9.87482L34.4561 10.1429C34.2943 10.2798 34.0968 10.3522 33.8849 10.3522C33.3969 10.3522 32.9998 9.95521 32.9998 9.46724C32.9998 9.21467 33.1086 8.97326 33.2981 8.80506L33.5718 8.56233L33.4738 8.20983C33.4521 8.13186 33.4412 8.05179 33.4412 7.97171C33.4412 7.48374 33.8382 7.08672 34.3262 7.08672C34.4891 7.08672 34.6481 7.13117 34.7859 7.21531L35.2376 7.49093L35.5577 7.06953C35.727 6.84664 35.984 6.71891 36.2629 6.71891C36.751 6.71891 37.148 7.11594 37.148 7.6039C37.1482 7.92335 36.9747 8.21913 36.6956 8.37608Z" fill="#47D9B6"/>
<path d="M32.0833 2.54338C31.7795 2.09612 31.3371 1.78277 30.8294 1.64433C30.7647 1.40855 30.6613 1.18386 30.5223 0.979334C30.1869 0.485588 29.6792 0.151997 29.0928 0.040123C28.5063 -0.0717511 27.9116 0.051451 27.4179 0.386839C26.6311 0.921444 26.2814 1.90019 26.5106 2.79487C25.8728 3.54486 25.791 4.65821 26.3628 5.49992C26.6983 5.99367 27.206 6.32726 27.7924 6.43913C27.9336 6.46609 28.0752 6.47945 28.2159 6.47945C28.6593 6.47937 29.0925 6.3471 29.4673 6.09234C29.5302 6.04968 29.5906 6.00398 29.6485 5.95539C30.2716 6.12422 30.9466 6.01758 31.4909 5.64773H31.4908C32.5101 4.95524 32.7759 3.56267 32.0833 2.54338ZM31.279 3.99853C31.2258 4.27736 31.0672 4.51884 30.8323 4.67845H30.8323C30.5151 4.89399 30.1041 4.92141 29.7599 4.75001L29.337 4.53962L29.0416 4.90829C28.9754 4.99087 28.897 5.06313 28.8088 5.12321C28.5739 5.28274 28.291 5.34141 28.0121 5.28805C27.7332 5.23477 27.4918 5.07618 27.3322 4.84134C27.0205 4.38259 27.1169 3.75439 27.5517 3.41111L27.9208 3.11963L27.716 2.6962C27.4888 2.2262 27.6438 1.65003 28.0765 1.35605C28.2548 1.23496 28.4607 1.17207 28.6716 1.17207C28.7385 1.17207 28.8059 1.1784 28.8731 1.19121C29.152 1.24449 29.3934 1.40308 29.553 1.63792C29.663 1.79972 29.7261 1.98776 29.7356 2.18159L29.7616 2.7101L30.2899 2.73799C30.6255 2.7558 30.9259 2.92494 31.1141 3.20189C31.2737 3.43674 31.3323 3.7197 31.279 3.99853Z" fill="#47D9B6"/>
<path d="M32.2262 16.463C32.2262 16.1482 32.1529 15.8373 32.0156 15.557C32.1542 15.2767 32.2262 14.9687 32.2262 14.6481C32.2262 13.6528 31.5157 12.8207 30.5753 12.6317C30.6834 12.3798 30.7418 12.1053 30.7418 11.8228C30.7418 10.6885 29.819 9.76575 28.6848 9.76575C28.3756 9.76575 28.0741 9.83505 27.8 9.96591C27.3039 9.49091 26.6398 9.21888 25.9371 9.21888C25.7567 9.21888 25.5785 9.23662 25.404 9.27185C25.245 9.11342 25.0617 8.98264 24.8615 8.8842C25.2693 8.47147 25.5075 7.90882 25.5075 7.31351C25.5075 6.0811 24.5049 5.07837 23.2724 5.07837C22.7322 5.07837 22.2244 5.26821 21.8243 5.61047C21.5931 5.53165 21.3491 5.49094 21.102 5.49094C20.663 5.49094 20.2434 5.61751 19.8863 5.84985C19.1406 5.14587 17.9785 5.02712 17.0961 5.62665C16.3415 6.13946 15.989 7.06124 16.1638 7.92553C15.2897 8.0878 14.608 8.80475 14.4986 9.69607C14.247 9.62333 13.9608 9.58458 13.6429 9.61185C13.1578 9.6531 12.7283 9.81536 12.3937 10.0786C12.1891 10.012 11.9739 9.97771 11.7559 9.97771C10.6216 9.97771 9.69891 10.9005 9.69891 12.0347C9.69891 12.1047 9.70243 12.1744 9.70954 12.2437C9.41931 12.6061 9.25751 13.0594 9.25751 13.53C9.25751 13.8696 9.33954 14.1931 9.48774 14.4791C8.31556 14.5466 7.38252 15.5213 7.38252 16.7097C7.38252 17.2684 7.59159 17.7973 7.95361 18.2015C7.38331 18.9033 7.10081 19.8061 7.17464 20.712L10.362 40H28.6995L31.881 20.76L31.8869 20.7121C31.9431 20.0228 31.793 19.3352 31.4667 18.7367C31.5144 18.5506 31.5391 18.3616 31.5391 18.1786C31.5391 18.1198 31.5366 18.0612 31.5317 18.0029C31.9679 17.6166 32.2262 17.0573 32.2262 16.463ZM11.3564 38.8276L8.34111 20.5936C8.29392 19.9393 8.51252 19.3141 8.9579 18.8309C9.40845 18.3421 10.0227 18.073 10.6875 18.073H10.712C11.9812 18.073 13.0137 19.0665 13.0626 20.3348L13.063 20.3466L13.0686 20.4174C13.0685 20.4651 13.0694 20.5129 13.0712 20.5609L14.5219 38.8276H11.3564ZM15.6976 38.8276L14.2408 20.3768C14.2521 19.7834 14.4825 19.2258 14.8977 18.7942C15.3453 18.3291 15.9473 18.073 16.5928 18.073C17.8899 18.073 18.9451 19.1283 18.9451 20.4253V38.8276H15.6976ZM20.117 38.8277V20.4254C20.117 19.1283 21.1723 18.073 22.4694 18.073C23.1149 18.073 23.7169 18.3292 24.1645 18.7943C24.5798 19.2258 24.8102 19.7834 24.8214 20.3768L23.3645 38.8277H20.117ZM30.721 20.5936L27.7057 38.8276H24.5403L25.9896 20.5847L25.991 20.5608C25.9928 20.5128 25.9937 20.4648 25.9936 20.417L25.9982 20.3583L25.9996 20.3347C26.0485 19.0665 27.081 18.0729 28.3503 18.0729H28.3747C29.0395 18.0729 29.6538 18.342 30.1043 18.8308C30.5496 19.3141 30.7682 19.9393 30.721 20.5936ZM30.6013 17.2347L30.2415 17.4372C29.6862 17.0909 29.0389 16.9012 28.3746 16.9012H28.3502C27.1201 16.9012 26.0385 17.5241 25.4082 18.4783C25.2914 18.3033 25.1581 18.1371 25.0087 17.9819C24.3382 17.285 23.4363 16.9012 22.4692 16.9012C21.2438 16.9012 20.1626 17.5298 19.5309 18.4815C18.8992 17.5299 17.818 16.9012 16.5926 16.9012C15.6256 16.9012 14.7237 17.285 14.0532 17.9819C13.9038 18.1371 13.7704 18.3032 13.6537 18.4783C13.0233 17.5241 11.9418 16.9012 10.7117 16.9012H10.6873C10.0286 16.9012 9.38673 17.0877 8.83462 17.4283C8.6572 17.2346 8.55447 16.9793 8.55447 16.7094C8.55447 16.1236 9.03142 15.647 9.61774 15.647C9.81329 15.647 10.0043 15.7003 10.17 15.8013L10.6212 16.0761L10.9411 15.6556C11.0115 15.5631 11.0971 15.4824 11.1955 15.4159L12.1956 14.7388L11.0448 14.3724C10.6768 14.2552 10.4295 13.9166 10.4295 13.5299C10.4295 13.277 10.5382 13.0356 10.7277 12.8674L11.0018 12.6244L10.9032 12.2714C10.8818 12.1948 10.8709 12.1151 10.8709 12.0346C10.8709 11.5466 11.268 11.1495 11.7561 11.1495C11.9193 11.1495 12.0782 11.1938 12.2156 11.2778L12.6674 11.5536L12.9876 11.132C13.181 10.8773 13.5049 10.7997 13.7426 10.7794C14.2623 10.7357 14.6419 11.0436 14.8685 11.228C14.9386 11.285 14.9992 11.3343 15.0652 11.3743L15.5208 11.6499L15.8356 11.2267L16.1226 10.8492L15.8436 10.4934C15.7203 10.3362 15.6552 10.1476 15.6552 9.94794C15.6552 9.4631 16.047 9.06803 16.5307 9.06287L16.8608 9.0817L17.0494 8.83623C17.104 8.76522 17.1649 8.70295 17.2302 8.65131L17.5989 8.35991L17.3944 7.93671C17.1671 7.46632 17.322 6.89 17.7547 6.59594C18.2395 6.26633 18.902 6.39305 19.2309 6.87742C19.2505 6.90617 19.2699 6.93914 19.2888 6.97531L19.7068 7.77647L20.2677 7.06789C20.4713 6.81054 20.7755 6.66289 21.1019 6.66289C21.2975 6.66289 21.4885 6.71625 21.6542 6.81718L22.1052 7.09195L22.4251 6.67172C22.629 6.40398 22.9378 6.25039 23.2722 6.25039C23.8585 6.25039 24.3355 6.72734 24.3355 7.31366C24.3355 7.6971 24.1274 8.0521 23.7925 8.24014L23.3815 8.47076L23.5187 8.92162C23.5489 9.02084 23.5647 9.12279 23.5659 9.22513C23.565 9.24076 23.5644 9.25662 23.5644 9.27295V9.78583L24.0729 9.85364C24.3304 9.88802 24.5592 10.0345 24.7004 10.2556L24.9566 10.6565L25.4015 10.4882C25.5721 10.4236 25.7523 10.3909 25.9371 10.3909C26.446 10.3909 26.9192 10.6434 27.2028 11.0664L27.5826 11.6329L28.0854 11.172C28.2502 11.0209 28.4631 10.9378 28.6848 10.9378C29.1729 10.9378 29.5699 11.3349 29.5699 11.8229C29.5699 12.142 29.3963 12.4378 29.117 12.5951L28.7028 12.8282L28.8453 13.2815C28.859 13.3249 28.8691 13.3744 28.8754 13.4287L28.9763 14.2988L29.742 13.8734C29.8713 13.8016 30.0189 13.7636 30.1691 13.7636C30.6572 13.7636 31.0542 14.1603 31.0542 14.648C31.0542 14.8482 30.9891 15.037 30.8659 15.1942L30.5818 15.5564L30.8665 15.9178C30.9894 16.074 31.0543 16.2623 31.0543 16.4625C31.0543 16.7816 30.8807 17.0774 30.6013 17.2347Z" fill="#47D9B6"/>
<path d="M21.5234 11.1328C21.3497 11.1328 21.1801 11.1584 21.0182 11.2084C20.6102 10.7669 20.0333 10.5078 19.414 10.5078C18.3678 10.5078 17.4908 11.2462 17.2765 12.229C16.1195 12.2847 15.1953 13.2434 15.1953 14.414H16.3672C16.3672 13.854 16.8228 13.3984 17.3828 13.3984C17.4748 13.3984 17.5688 13.4119 17.6622 13.4386L18.5031 13.679L18.4055 12.8099C18.4008 12.7673 18.3984 12.7299 18.3984 12.6953C18.3984 12.1353 18.854 11.6797 19.414 11.6797C19.7929 11.6797 20.1378 11.8891 20.314 12.2262L20.6376 12.845L21.1908 12.4188C21.2584 12.3667 21.371 12.3047 21.5234 12.3047C21.8249 12.3047 22.0703 12.5501 22.0703 12.8515H23.2421C23.2421 11.9038 22.4711 11.1328 21.5234 11.1328Z" fill="#47D9B6"/>
<path d="M25.4297 13.2812C24.8565 13.2812 24.3157 13.5277 23.9363 13.9388C23.7277 13.8657 23.5072 13.8281 23.2812 13.8281C22.1827 13.8281 21.2891 14.7218 21.2891 15.8203H22.4609C22.4609 15.368 22.8289 15 23.2812 15C23.4586 15 23.6283 15.0569 23.7719 15.1648L24.3464 15.5962L24.6535 14.9467C24.7952 14.6469 25.0999 14.4531 25.4297 14.4531C25.9035 14.4531 26.289 14.8387 26.289 15.3125H27.4609C27.4608 14.1924 26.5497 13.2812 25.4297 13.2812Z" fill="#47D9B6"/>
<path d="M10.6719 20.3175L9.51562 20.5081L10.271 25.0566L11.4273 24.8661L10.6719 20.3175Z" fill="#47D9B6"/>
<path d="M12.5225 31.5078L11.3662 31.6982L11.8373 34.5367L12.9936 34.3463L12.5225 31.5078Z" fill="#47D9B6"/>
<path d="M21.4132 33.8177L21.292 35.3379L22.4603 35.4303L22.5815 33.9101L21.4132 33.8177Z" fill="#47D9B6"/>
<path d="M22.134 24.7554L21.7788 29.2087L22.947 29.3012L23.3022 24.8478L22.134 24.7554Z" fill="#47D9B6"/>
<path d="M22.4815 20.3691L22.2749 22.9595L23.4432 23.0519L23.6498 20.4615L22.4815 20.3691Z" fill="#47D9B6"/>
</g>
<defs>
<clipPath id="clip0">
<rect width="40" height="40" fill="white"/>
</clipPath>
</defs>
</svg>
