<svg width="20" height="12" viewBox="0 0 20 12" fill="none" xmlns="http://www.w3.org/2000/svg">
<path d="M16.5958 6.85668C16.2725 6.44834 16.365 6.26668 16.5958 5.90168C16.6 5.89751 19.2692 2.20917 19.5442 0.958339L19.5458 0.957506C19.6825 0.501672 19.5458 0.166672 18.885 0.166672H16.6983C16.1417 0.166672 15.885 0.454172 15.7475 0.775839C15.7475 0.775839 14.6342 3.44084 13.0592 5.16834C12.5508 5.66751 12.3158 5.82751 12.0383 5.82751C11.9017 5.82751 11.6892 5.66751 11.6892 5.21168V0.957506C11.6892 0.410838 11.5333 0.166672 11.0725 0.166672H7.63417C7.285 0.166672 7.0775 0.421672 7.0775 0.659172C7.0775 1.17751 7.865 1.29667 7.94667 2.75501V5.91918C7.94667 6.61251 7.82083 6.74001 7.54167 6.74001C6.79833 6.74001 4.99417 4.06417 3.925 1.00167C3.70917 0.407505 3.49833 0.167505 2.9375 0.167505H0.75C0.125833 0.167505 0 0.455005 0 0.776672C0 1.34501 0.743333 4.17084 3.45667 7.90418C5.265 10.4525 7.81167 11.8333 10.1283 11.8333C11.5208 11.8333 11.6908 11.5267 11.6908 10.9992C11.6908 8.56418 11.565 8.33418 12.2625 8.33418C12.5858 8.33418 13.1425 8.49418 14.4425 9.72335C15.9283 11.1808 16.1725 11.8333 17.0042 11.8333H19.1908C19.8142 11.8333 20.13 11.5267 19.9483 10.9217C19.5325 9.64918 16.7225 7.03168 16.5958 6.85668Z" fill="#717171"/>
</svg>
