<svg width="50" height="50" xmlns="http://www.w3.org/2000/svg">
 <defs width="0" height="0">
  <filter height="200%" width="200%" y="-50%" x="-50%" id="imagebot_10_blur">
   <feGaussianBlur stdDeviation="4.4" in="SourceGraphic" width="0" height="0"/>
  </filter>
 </defs>
 <g display="inline" width="0" height="0">
  <title display="inline" width="0" height="0"/>
  <path transform="matrix(-1 0 0 1 512 0)" filter="url(#imagebot_10_blur)" display="inline" d="M 415.6307678222656 511.96923065185547 L 94.39999389648438 511.96923065185547 C 41.17261681083679 511.96923065185547 -1.96923828125 468.82737555976865 -1.96923828125 415.5999984741211 L -1.96923828125 94.36922454833984 C -1.96923828125 41.14184746269226 41.17261681083679 -2.0000076293945312 94.39999389648438 -2.0000076293945312 L 415.6307678222656 -2.0000076293945312 C 468.8581449079132 -2.0000076293945312 512 41.14184746269226 512 94.36922454833984 L 512 415.5999984741211 C 512 468.82737555976865 468.8581449079132 511.96923065185547 415.6307678222656 511.96923065185547 z M 415.6307678222656 511.96923065185547" fill="#8a8a91" id="imagebot_10" opacity="0.75" width="0" height="0"/>
 </g>
 <g display="inline" width="0" height="0">
  <title display="inline" width="0" height="0"/>
  <g transform="translate(-1.5625 0) matrix(-1 0 0 1 512 0)" display="inline" fill="#be63f9" id="imagebot_6" width="0" height="0">
   <path d="M341.32813,170.67188L170.67188,170.67188C164.78516,170.67188 160,175.45703 160,181.34375L160,202.67188C160,208.55859 164.78516,213.34375 170.67188,213.34375L341.34375,213.34375C347.23047,213.34375 352.01563,208.55859 352.01563,202.67188L352.01563,181.34375C352,175.45703 347.21484,170.67188 341.32813,170.67188zM341.32813,170.67188" fill="#47d9b6" id="imagebot_9" stroke="#35a88b" stroke-width="2.5" width="0" height="0"/>
   <path d="M341.32813,234.67188L170.67188,234.67188C164.78516,234.67188 160,239.45703 160,245.34375L160,266.67188C160,272.55859 164.78516,277.34375 170.67188,277.34375L341.34375,277.34375C347.23047,277.34375 352.01563,272.55859 352.01563,266.67188L352.01563,245.34375C352,239.45703 347.21484,234.67188 341.32813,234.67188zM341.32813,234.67188" fill="#47d9b6" id="imagebot_8" stroke="#35a88b" stroke-width="2.5" width="0" height="0"/>
   <path d="M341.32813,298.67188L170.67188,298.67188C164.78516,298.67188 160,303.45703 160,309.34375L160,330.67188C160,336.55859 164.78516,341.34375 170.67188,341.34375L341.34375,341.34375C347.23047,341.34375 352.01563,336.55859 352.01563,330.67188L352.01563,309.34375C352,303.45703 347.21484,298.67188 341.32813,298.67188zM341.32813,298.67188" fill="#47d9b6" id="imagebot_7" stroke="#35a88b" stroke-width="2.5" width="0" height="0"/>
  </g>
 </g>
</svg>
